<mxfile host="app.diagrams.net" modified="2023-05-24T18:10:07.553Z" agent="Mozilla/5.0 (Windows NT 10.0; Win64; x64; rv:109.0) Gecko/20100101 Firefox/113.0" etag="b4TeyAeXK5exxuZJ0UhR" version="21.3.3" type="github">
  <diagram id="C5RBs43oDa-KdzZeNtuy" name="Page-1">
    <mxGraphModel dx="1658" dy="893" grid="1" gridSize="10" guides="1" tooltips="1" connect="1" arrows="1" fold="1" page="1" pageScale="1" pageWidth="827" pageHeight="1169" math="0" shadow="0">
      <root>
        <mxCell id="WIyWlLk6GJQsqaUBKTNV-0" />
        <mxCell id="WIyWlLk6GJQsqaUBKTNV-1" parent="WIyWlLk6GJQsqaUBKTNV-0" />
        <mxCell id="Eb36ysWTBSQc3GgwpaGg-2" value="" style="edgeStyle=orthogonalEdgeStyle;rounded=0;orthogonalLoop=1;jettySize=auto;html=1;" edge="1" parent="WIyWlLk6GJQsqaUBKTNV-1" source="Eb36ysWTBSQc3GgwpaGg-0" target="Eb36ysWTBSQc3GgwpaGg-1">
          <mxGeometry relative="1" as="geometry" />
        </mxCell>
        <mxCell id="Eb36ysWTBSQc3GgwpaGg-0" value="&lt;div&gt;Recibes&lt;/div&gt;&lt;div&gt;&lt;ul&gt;&lt;li&gt;&lt;div align=&quot;left&quot;&gt;request.files&lt;/div&gt;&lt;/li&gt;&lt;li&gt;&lt;div align=&quot;left&quot;&gt;ruta de archivo&lt;/div&gt;&lt;/li&gt;&lt;li&gt;Destinatario (Opcional) inicializar como false&lt;br&gt;&lt;div align=&quot;left&quot;&gt;&lt;br&gt;&lt;/div&gt;&lt;/li&gt;&lt;/ul&gt;&lt;/div&gt;" style="ellipse;whiteSpace=wrap;html=1;" vertex="1" parent="WIyWlLk6GJQsqaUBKTNV-1">
          <mxGeometry x="30" y="130" width="290" height="140" as="geometry" />
        </mxCell>
        <mxCell id="Eb36ysWTBSQc3GgwpaGg-4" value="" style="edgeStyle=orthogonalEdgeStyle;rounded=0;orthogonalLoop=1;jettySize=auto;html=1;" edge="1" parent="WIyWlLk6GJQsqaUBKTNV-1" source="Eb36ysWTBSQc3GgwpaGg-1" target="Eb36ysWTBSQc3GgwpaGg-3">
          <mxGeometry relative="1" as="geometry" />
        </mxCell>
        <mxCell id="Eb36ysWTBSQc3GgwpaGg-1" value="Verificar que archivos sean PDF" style="whiteSpace=wrap;html=1;" vertex="1" parent="WIyWlLk6GJQsqaUBKTNV-1">
          <mxGeometry x="350" y="170" width="120" height="60" as="geometry" />
        </mxCell>
        <mxCell id="Eb36ysWTBSQc3GgwpaGg-6" value="" style="edgeStyle=orthogonalEdgeStyle;rounded=0;orthogonalLoop=1;jettySize=auto;html=1;" edge="1" parent="WIyWlLk6GJQsqaUBKTNV-1" source="Eb36ysWTBSQc3GgwpaGg-3" target="Eb36ysWTBSQc3GgwpaGg-5">
          <mxGeometry relative="1" as="geometry" />
        </mxCell>
        <mxCell id="Eb36ysWTBSQc3GgwpaGg-3" value="&lt;div&gt;Sobre escribir archivo (rutaarchivo) por el de request.files&lt;/div&gt;&lt;div&gt;&lt;br&gt;&lt;/div&gt;&lt;div&gt;Debe conservar el nombre original del archivo&lt;br&gt;&lt;/div&gt;" style="whiteSpace=wrap;html=1;" vertex="1" parent="WIyWlLk6GJQsqaUBKTNV-1">
          <mxGeometry x="530" y="130" width="210" height="140" as="geometry" />
        </mxCell>
        <mxCell id="Eb36ysWTBSQc3GgwpaGg-10" value="" style="edgeStyle=orthogonalEdgeStyle;rounded=0;orthogonalLoop=1;jettySize=auto;html=1;" edge="1" parent="WIyWlLk6GJQsqaUBKTNV-1" source="Eb36ysWTBSQc3GgwpaGg-5" target="Eb36ysWTBSQc3GgwpaGg-9">
          <mxGeometry relative="1" as="geometry" />
        </mxCell>
        <mxCell id="Eb36ysWTBSQc3GgwpaGg-5" value="Enviar Acuse de Firma de función utils" style="whiteSpace=wrap;html=1;" vertex="1" parent="WIyWlLk6GJQsqaUBKTNV-1">
          <mxGeometry x="830" y="170" width="120" height="60" as="geometry" />
        </mxCell>
        <mxCell id="Eb36ysWTBSQc3GgwpaGg-12" value="Si" style="edgeStyle=orthogonalEdgeStyle;rounded=0;orthogonalLoop=1;jettySize=auto;html=1;" edge="1" parent="WIyWlLk6GJQsqaUBKTNV-1" source="Eb36ysWTBSQc3GgwpaGg-9" target="Eb36ysWTBSQc3GgwpaGg-11">
          <mxGeometry relative="1" as="geometry" />
        </mxCell>
        <mxCell id="Eb36ysWTBSQc3GgwpaGg-14" value="No" style="edgeStyle=orthogonalEdgeStyle;rounded=0;orthogonalLoop=1;jettySize=auto;html=1;" edge="1" parent="WIyWlLk6GJQsqaUBKTNV-1" source="Eb36ysWTBSQc3GgwpaGg-9" target="Eb36ysWTBSQc3GgwpaGg-13">
          <mxGeometry relative="1" as="geometry" />
        </mxCell>
        <mxCell id="Eb36ysWTBSQc3GgwpaGg-9" value="Tiene destinatario?" style="rhombus;whiteSpace=wrap;html=1;" vertex="1" parent="WIyWlLk6GJQsqaUBKTNV-1">
          <mxGeometry x="1040" y="135" width="145" height="130" as="geometry" />
        </mxCell>
        <mxCell id="Eb36ysWTBSQc3GgwpaGg-16" value="" style="edgeStyle=orthogonalEdgeStyle;rounded=0;orthogonalLoop=1;jettySize=auto;html=1;entryX=1;entryY=0.5;entryDx=0;entryDy=0;" edge="1" parent="WIyWlLk6GJQsqaUBKTNV-1" source="Eb36ysWTBSQc3GgwpaGg-11" target="Eb36ysWTBSQc3GgwpaGg-13">
          <mxGeometry relative="1" as="geometry">
            <mxPoint x="1337.5" y="310" as="targetPoint" />
            <Array as="points">
              <mxPoint x="1338" y="410" />
            </Array>
          </mxGeometry>
        </mxCell>
        <mxCell id="Eb36ysWTBSQc3GgwpaGg-11" value="Envíar solicitud de firma funcion utils" style="whiteSpace=wrap;html=1;" vertex="1" parent="WIyWlLk6GJQsqaUBKTNV-1">
          <mxGeometry x="1277.5" y="170" width="120" height="60" as="geometry" />
        </mxCell>
        <mxCell id="Eb36ysWTBSQc3GgwpaGg-13" value="&lt;div&gt;Return &lt;br&gt;&lt;/div&gt;&lt;div&gt;True&lt;/div&gt;" style="ellipse;whiteSpace=wrap;html=1;" vertex="1" parent="WIyWlLk6GJQsqaUBKTNV-1">
          <mxGeometry x="1072.5" y="370" width="80" height="80" as="geometry" />
        </mxCell>
        <mxCell id="Eb36ysWTBSQc3GgwpaGg-17" value="Firmas" style="text;html=1;strokeColor=none;fillColor=none;align=center;verticalAlign=middle;whiteSpace=wrap;rounded=0;fontSize=27;" vertex="1" parent="WIyWlLk6GJQsqaUBKTNV-1">
          <mxGeometry x="60" y="20" width="220" height="30" as="geometry" />
        </mxCell>
      </root>
    </mxGraphModel>
  </diagram>
</mxfile>
